<svg width="127" height="96" viewBox="0 0 127 96" fill="none" xmlns="http://www.w3.org/2000/svg">
<path d="M99.7784 86.4606C97.7703 94.9951 91.4112 95.8737 88.4827 95.2462L84.09 73.2824C84.9267 68.4713 87.3532 54.4563 90.3653 36.8853C94.1305 14.9215 100.406 11.1562 106.681 6.13592C112.957 1.11562 131.155 -2.6496 126.135 2.3707C121.115 7.39099 116.722 16.1765 112.957 26.8446C109.191 37.5128 102.289 75.7925 99.7784 86.4606Z" fill="url(#paint0_linear_1_2)"/>
<path d="M69.8798 58.2409C68.339 46.9565 69.2378 27.7814 69.8798 19.6044L73.0897 9.79192C78.4395 6.72554 88.3688 1.45135 85.2873 4.8857C81.4354 9.17865 80.7935 19.6044 82.0774 30.0301C83.3614 40.4558 92.3491 77.8657 96.8429 87.0649C101.337 96.2641 90.4231 96.2641 83.3614 94.4242C76.2996 92.5844 75.0156 86.4516 73.7317 81.5454C72.4477 76.6392 71.8057 72.3462 69.8798 58.2409Z" fill="url(#paint1_linear_1_2)"/>
<path d="M53.6662 88.972C53.7812 94.709 47.9134 95.4482 44.9652 95.1007C41.973 92.562 37.3737 82.0803 42.9136 60.4634C49.8385 33.4422 69.6912 7.99071 78.4282 3.65485C87.1652 -0.681013 90.6057 1.65067 87.249 3.50219C83.8923 5.3537 75.9297 14.4586 70.1103 28.9067C64.291 43.3548 53.5225 81.8008 53.6662 88.972Z" fill="url(#paint2_linear_1_2)"/>
<path d="M31.8061 78.9887C29.7174 67.8145 23.5384 48.8264 20.71 40.7292C15.3644 24.3322 5.04499 5.50613 1.12873 3.07696C-2.78753 0.64778 3.73957 0.64778 16.7938 3.07696C29.848 5.50613 38.9859 31.6198 43.5549 43.7656C48.1238 55.9115 50.7347 86.8835 51.3874 91.1346C52.0401 95.3856 48.1238 95.3856 41.5967 95.3856C35.0696 95.3856 34.4169 92.9564 31.8061 78.9887Z" fill="url(#paint3_linear_1_2)"/>
<defs>
<linearGradient id="paint0_linear_1_2" x1="105.545" y1="0" x2="105.545" y2="95.4066" gradientUnits="userSpaceOnUse">
<stop stop-color="#BAD372"/>
<stop offset="1" stop-color="#3E854E"/>
</linearGradient>
<linearGradient id="paint1_linear_1_2" x1="83.4624" y1="3.76522" x2="83.4624" y2="95.3856" gradientUnits="userSpaceOnUse">
<stop offset="0.128125" stop-color="#3D8940"/>
<stop offset="0.888542" stop-color="#BAD372"/>
</linearGradient>
<linearGradient id="paint2_linear_1_2" x1="63.6329" y1="1.58559" x2="65.247" y2="94.8454" gradientUnits="userSpaceOnUse">
<stop offset="0.0760415" stop-color="#89BD6F"/>
<stop offset="0.89375" stop-color="#3B7C54"/>
<stop offset="1" stop-color="#397A53"/>
</linearGradient>
<linearGradient id="paint3_linear_1_2" x1="25.729" y1="1.25507" x2="25.729" y2="95.3856" gradientUnits="userSpaceOnUse">
<stop offset="0.133333" stop-color="#397A53"/>
<stop offset="0.8625" stop-color="#BAD372"/>
</linearGradient>
</defs>
</svg>
